<svg width="24" height="24" viewBox="0 0 24 24" fill="none" xmlns="http://www.w3.org/2000/svg">
<path fill-rule="evenodd" clip-rule="evenodd" d="M12.9909 3.34154C12.3592 2.96428 11.5715 2.96428 10.9398 3.34153L11.4489 4.19394L10.9398 3.34153L2.86415 8.1648C1.12085 9.206 1.85911 11.8819 3.88968 11.8819H4.00002V18C4.00002 19.1046 4.89545 20 6.00002 20H14.6082C13.4509 19.7773 12.4829 19.0224 11.969 18H6.00002V10.8819V9.88186H5.00002H3.88968L11.9653 5.05859L20.041 9.88186L19 9.88186H18V10.8819V13.6954C18.6621 14.3715 19.0702 15.2973 19.0702 16.3183C19.0702 18.1453 17.7635 19.6671 16.0336 20H18C19.1046 20 20 19.1046 20 18V11.8819H20.041C22.0716 11.8819 22.8098 9.206 21.0665 8.1648L12.9909 3.34154Z" fill="#ADADAD"/>
<path fill-rule="evenodd" clip-rule="evenodd" d="M18.3433 16.6717C18.3433 18.1472 17.1472 19.3433 15.6717 19.3433C14.1961 19.3433 13 18.1472 13 16.6717C13 15.1961 14.1961 14 15.6717 14C17.1472 14 18.3433 15.1961 18.3433 16.6717ZM18.4533 20.4253C17.6762 21.0021 16.7138 21.3433 15.6717 21.3433C13.0916 21.3433 11 19.2518 11 16.6717C11 14.0916 13.0916 12 15.6717 12C18.2518 12 20.3433 14.0916 20.3433 16.6717C20.3433 17.6001 20.0725 18.4652 19.6056 19.1924C19.7973 19.2281 19.9805 19.32 20.1288 19.4683L22.2183 21.5579C22.6089 21.9484 22.6089 22.5815 22.2183 22.9721C21.8278 23.3626 21.1947 23.3626 20.8041 22.9721L18.7146 20.8825C18.5834 20.7514 18.4963 20.5929 18.4533 20.4253Z" fill="#ADADAD"/>
</svg>
