<svg width="24" height="24" viewBox="0 0 24 24" fill="none" xmlns="http://www.w3.org/2000/svg">
<rect x="3" y="3" width="17" height="17" rx="2" stroke="#ADADAD" stroke-width="2"/>
<path d="M7.83021 10.5131H8.90507V8.90507H10.5131V7.83021H8.90507V6.22223H7.83021V7.83021H6.22223V8.90507H7.83021V10.5131Z" fill="#ADADAD"/>
<path d="M7.01332 16.9667L8.43213 15.5479L9.85094 16.9667L10.642 16.1843L9.21463 14.7654L10.642 13.3466L9.85094 12.5555L8.43213 13.9744L7.01332 12.5555L6.22223 13.3466L7.64964 14.7654L6.22223 16.1843L7.01332 16.9667Z" fill="#ADADAD"/>
<path d="M16.8034 13.4259H12.5555V14.4492H16.8034V13.4259ZM13.9486 15.6187C13.9486 16.0271 14.271 16.3496 14.6795 16.3496C15.0707 16.3496 15.3975 16.0271 15.3932 15.6187C15.3975 15.2274 15.0707 14.9006 14.6795 14.9049C14.271 14.9006 13.9486 15.2274 13.9486 15.6187ZM13.9486 12.2479C13.9486 12.6478 14.2753 12.9745 14.6795 12.9788C15.075 12.9745 15.3975 12.6478 15.3932 12.2479C15.3975 11.8481 15.075 11.5299 14.6795 11.5256C14.2753 11.5299 13.9486 11.8481 13.9486 12.2479Z" fill="#ADADAD"/>
<path d="M16.7778 7.27777H12.5555V8.33333H16.7778V7.27777Z" fill="#ADADAD"/>
</svg>
