<svg width="25" height="25" viewBox="0 0 25 25" fill="none" xmlns="http://www.w3.org/2000/svg">
<path d="M14.2259 19.0982L14.6546 17.7845H16.7156L17.1444 19.0982H18.4109L16.4443 13.4028H14.926L12.9515 19.0982H14.2259ZM14.9535 16.8641L15.6655 14.685H15.7048L16.4167 16.8641H14.9535Z" fill="#ADADAD"/>
<path d="M12.4244 6.97263H11.5182V11.7799H12.4244V9.68425H13.2952V8.94793H12.4244V6.97263ZM7.31268 8.3603H11.1359V7.64522H9.67739V6.95847H8.77823V7.64522H7.31268V8.3603ZM7.6242 9.83292C7.6242 10.5763 8.28618 11.0648 9.22427 11.0648C10.1588 11.0648 10.8102 10.5763 10.8102 9.83292C10.8102 9.08599 10.1588 8.58685 9.22427 8.58685C8.28618 8.58685 7.6242 9.08599 7.6242 9.83292ZM8.24724 13.295H12.658V12.5729H9.14639V11.4118H8.24724V13.295ZM8.50919 9.83292C8.50565 9.47539 8.79239 9.27715 9.22427 9.27361C9.65969 9.27715 9.9535 9.47539 9.9535 9.83292C9.9535 10.1869 9.65969 10.3781 9.22427 10.3781C8.79239 10.3781 8.50565 10.1869 8.50919 9.83292Z" fill="#ADADAD"/>
<path fill-rule="evenodd" clip-rule="evenodd" d="M7.59002 13.7923L7.31267 13.6074L7.03532 13.7923L5.82701 14.5978C5.59725 14.751 5.53516 15.0614 5.68834 15.2912C5.84151 15.521 6.15195 15.5831 6.38171 15.4299L6.75852 15.1787C6.7893 15.9131 6.97295 16.745 7.4302 17.4905C8.15148 18.6665 9.50078 19.5416 11.7432 19.5416V18.5416C9.79672 18.5416 8.79653 17.8055 8.28264 16.9677C7.9232 16.3816 7.77724 15.7054 7.75622 15.1049L8.24363 15.4299C8.4734 15.5831 8.78383 15.521 8.93701 15.2912C9.09019 15.0614 9.0281 14.751 8.79833 14.5978L7.59002 13.7923Z" fill="#ADADAD"/>
<path fill-rule="evenodd" clip-rule="evenodd" d="M18.7417 10.8213C18.7109 10.087 18.5272 9.25504 18.07 8.50952C17.3487 7.33352 15.9994 6.45847 13.757 6.45847V7.45847C15.7035 7.45847 16.7036 8.19449 17.2175 9.03235C17.577 9.61839 17.7229 10.2947 17.744 10.8951L17.2565 10.5701C17.0268 10.417 16.7163 10.4791 16.5632 10.7088C16.41 10.9386 16.4721 11.249 16.7018 11.4022L17.9102 12.2077L18.1875 12.3926L18.4649 12.2077L19.6732 11.4022C19.9029 11.249 19.965 10.9386 19.8118 10.7088C19.6587 10.4791 19.3482 10.417 19.1185 10.5701L18.7417 10.8213Z" fill="#ADADAD"/>
<rect x="3" y="3" width="19" height="19" rx="3" stroke="#ADADAD" stroke-width="2"/>
</svg>
