<svg width="24" height="24" viewBox="0 0 24 24" fill="none" xmlns="http://www.w3.org/2000/svg">
<path d="M13.6568 18.3343L14.0684 17.0731H16.047L16.4586 18.3343H17.6745L15.7865 12.8667H14.3289L12.4334 18.3343H13.6568ZM14.3554 16.1895L15.0388 14.0976H15.0766L15.76 16.1895H14.3554Z" fill="#FF7B00"/>
<path d="M11.9275 6.69369H11.0575V11.3087H11.9275V9.29685H12.7635V8.58999H11.9275V6.69369ZM7.0202 8.02586H10.6904V7.33938H9.29032V6.6801H8.42713V7.33938H7.0202V8.02586ZM7.31926 9.43958C7.31926 10.1532 7.95476 10.6222 8.85533 10.6222C9.7525 10.6222 10.3778 10.1532 10.3778 9.43958C10.3778 8.72252 9.7525 8.24335 8.85533 8.24335C7.95476 8.24335 7.31926 8.72252 7.31926 9.43958ZM7.91737 12.7632H12.1517V12.0699H8.78056V10.9553H7.91737V12.7632ZM8.16885 9.43958C8.16546 9.09634 8.44072 8.90604 8.85533 8.90264C9.27333 8.90604 9.55539 9.09634 9.55539 9.43958C9.55539 9.77942 9.27333 9.96293 8.85533 9.96293C8.44072 9.96293 8.16546 9.77942 8.16885 9.43958Z" fill="#FF7B00"/>
<path fill-rule="evenodd" clip-rule="evenodd" d="M7.29755 13.2239L7.0202 13.039L6.74285 13.2239L5.58287 13.9973C5.35311 14.1504 5.29102 14.4609 5.4442 14.6906C5.59737 14.9204 5.90781 14.9825 6.13757 14.8293L6.46984 14.6078C6.50387 15.3069 6.68228 16.0942 7.11598 16.8013C7.81255 17.9371 9.11486 18.7799 11.2735 18.7799V17.7799C9.4108 17.7799 8.4576 17.0761 7.96842 16.2785C7.63324 15.732 7.49249 15.1028 7.46753 14.5391L7.90283 14.8293C8.13259 14.9825 8.44303 14.9204 8.5962 14.6906C8.74938 14.4609 8.68729 14.1504 8.45753 13.9973L7.29755 13.2239Z" fill="#FF7B00"/>
<path fill-rule="evenodd" clip-rule="evenodd" d="M18.0104 10.3522C17.9763 9.65309 17.7979 8.86579 17.3642 8.15867C16.6676 7.02295 15.3653 6.18011 13.2067 6.18011V7.18011C15.0694 7.18011 16.0226 7.88392 16.5118 8.6815C16.8469 9.22798 16.9877 9.8572 17.0127 10.4209L16.5774 10.1307C16.3476 9.97751 16.0372 10.0396 15.884 10.2694C15.7308 10.4991 15.7929 10.8096 16.0227 10.9627L17.1826 11.7361L17.46 11.921L17.7373 11.7361L18.8973 10.9627C19.1271 10.8096 19.1892 10.4991 19.036 10.2694C18.8828 10.0396 18.5724 9.97751 18.3426 10.1307L18.0104 10.3522Z" fill="#FF7B00"/>
<rect x="2.88" y="2.88" width="18.24" height="18.24" rx="3" stroke="#333333" stroke-width="2"/>
</svg>
