<svg width="24" height="24" viewBox="0 0 24 24" fill="none" xmlns="http://www.w3.org/2000/svg">
<circle cx="16.32" cy="8.63999" r="5.76" fill="#FF7B00"/>
<mask id="path-2-inside-1_67_1715" fill="white">
<path fill-rule="evenodd" clip-rule="evenodd" d="M5.81253 19.3706C5.81252 19.3706 5.81251 19.3706 5.81251 19.3706C3.13254 19.3706 0.96 17.1981 0.96 14.5181C0.96 11.9579 2.94284 9.86068 5.45666 9.67848C6.00576 7.1734 8.23773 5.29839 10.9076 5.29839C13.2799 5.29839 15.3065 6.77866 16.114 8.86592C16.5435 8.75446 16.9941 8.69514 17.4585 8.69514C20.4065 8.69514 22.7963 11.0849 22.7963 14.0329C22.7963 16.8173 20.6643 19.1037 17.9438 19.3489V19.3707H5.81253V19.3706Z"/>
</mask>
<path d="M5.81252 19.3707H7.81252V17.3707H5.81252V19.3707ZM5.45665 9.67848L5.60123 11.6733L7.09055 11.5653L7.41027 10.1067L5.45665 9.67848ZM16.114 8.86592L14.2487 9.58756L14.8916 11.2493L16.6163 10.8018L16.114 8.86592ZM17.9438 19.3489L17.7643 17.357L15.9438 17.521V19.3489H17.9438ZM17.9438 19.3707V21.3707H19.9438V19.3707H17.9438ZM5.81252 19.3707H3.81252V21.3707H5.81252V19.3707ZM5.81252 17.3707H5.81252C5.81252 17.3707 5.81252 17.3707 5.81252 17.3707H5.81252C5.81252 17.3707 5.81252 17.3707 5.81252 17.3707C5.81252 17.3707 5.81252 17.3707 5.81252 17.3707H5.81252C5.81252 17.3707 5.81252 17.3707 5.81252 17.3707C5.81252 17.3707 5.81252 17.3707 5.81252 17.3707H5.81252C5.81252 17.3707 5.81252 17.3707 5.81252 17.3707H5.81252C5.81252 17.3707 5.81252 17.3707 5.81251 17.3707C5.81251 17.3707 5.81251 17.3707 5.81251 17.3707H5.81251C5.81251 17.3707 5.81251 17.3707 5.81251 17.3707C5.81251 17.3707 5.81251 17.3707 5.81251 17.3707H5.81251C5.81251 17.3707 5.81251 17.3707 5.81251 17.3707H5.81251C5.81251 17.3707 5.81251 17.3707 5.81251 17.3707C5.81251 17.3707 5.81251 17.3707 5.81251 17.3707H5.81251C5.81251 17.3707 5.81251 17.3707 5.81251 17.3707C5.81251 17.3707 5.81251 17.3707 5.81251 17.3707H5.81251C5.81251 17.3707 5.81251 17.3707 5.81251 17.3707H5.81251C5.81251 17.3707 5.81251 17.3707 5.81251 17.3707C5.81251 17.3707 5.81251 17.3707 5.81251 17.3707H5.81251C5.81251 17.3707 5.81251 17.3707 5.81251 17.3707C5.81251 17.3707 5.81251 17.3707 5.81251 17.3707C5.81251 17.3707 5.81251 17.3707 5.8125 17.3707C5.8125 17.3707 5.8125 17.3707 5.8125 17.3707H5.8125C5.8125 17.3707 5.8125 17.3707 5.8125 17.3707C5.8125 17.3707 5.8125 17.3707 5.8125 17.3707H5.8125C5.8125 17.3707 5.8125 17.3707 5.8125 17.3707C5.8125 17.3707 5.8125 17.3707 5.8125 17.3707C5.8125 17.3707 5.8125 17.3707 5.8125 17.3707C5.8125 17.3707 5.8125 17.3707 5.8125 17.3707H5.8125C5.8125 17.3707 5.8125 17.3707 5.8125 17.3707C5.8125 17.3707 5.8125 17.3707 5.8125 17.3707V21.3706C5.8125 21.3706 5.8125 21.3706 5.8125 21.3706C5.8125 21.3706 5.8125 21.3706 5.8125 21.3706H5.8125C5.8125 21.3706 5.8125 21.3706 5.8125 21.3706C5.8125 21.3706 5.8125 21.3706 5.8125 21.3706C5.8125 21.3706 5.8125 21.3706 5.8125 21.3706C5.8125 21.3706 5.8125 21.3706 5.8125 21.3706H5.8125C5.8125 21.3706 5.8125 21.3706 5.8125 21.3706C5.8125 21.3706 5.8125 21.3706 5.8125 21.3706H5.8125C5.8125 21.3706 5.8125 21.3706 5.8125 21.3706C5.81251 21.3706 5.81251 21.3706 5.81251 21.3706C5.81251 21.3706 5.81251 21.3706 5.81251 21.3706C5.81251 21.3706 5.81251 21.3706 5.81251 21.3706H5.81251C5.81251 21.3706 5.81251 21.3706 5.81251 21.3706C5.81251 21.3706 5.81251 21.3706 5.81251 21.3706H5.81251C5.81251 21.3706 5.81251 21.3706 5.81251 21.3706H5.81251C5.81251 21.3706 5.81251 21.3706 5.81251 21.3706C5.81251 21.3706 5.81251 21.3706 5.81251 21.3706H5.81251C5.81251 21.3706 5.81251 21.3706 5.81251 21.3706C5.81251 21.3706 5.81251 21.3706 5.81251 21.3706H5.81251C5.81251 21.3706 5.81251 21.3706 5.81251 21.3706H5.81251C5.81251 21.3706 5.81251 21.3706 5.81251 21.3706C5.81251 21.3706 5.81251 21.3706 5.81251 21.3706H5.81251C5.81251 21.3706 5.81251 21.3706 5.81251 21.3706C5.81252 21.3706 5.81252 21.3706 5.81252 21.3706H5.81252C5.81252 21.3706 5.81252 21.3706 5.81252 21.3706H5.81252C5.81252 21.3706 5.81252 21.3706 5.81252 21.3706C5.81252 21.3706 5.81252 21.3706 5.81252 21.3706H5.81252C5.81252 21.3706 5.81252 21.3706 5.81252 21.3706C5.81252 21.3706 5.81252 21.3706 5.81252 21.3706H5.81252C5.81252 21.3706 5.81252 21.3706 5.81252 21.3706H5.81252V17.3707ZM5.8125 17.3707C4.2371 17.3707 2.95999 16.0935 2.95999 14.5181H-1.04001C-1.04001 18.3027 2.02796 21.3706 5.8125 21.3706V17.3707ZM2.95999 14.5181C2.95999 13.014 4.1255 11.7802 5.60123 11.6733L5.31207 7.68372C1.76016 7.94115 -1.04001 10.9017 -1.04001 14.5181H2.95999ZM7.41027 10.1067C7.76247 8.49992 9.19708 7.29839 10.9076 7.29839V3.29839C7.27837 3.29839 4.24903 5.84689 3.50303 9.25026L7.41027 10.1067ZM10.9076 7.29839C12.4265 7.29839 13.7293 8.245 14.2487 9.58756L17.9792 8.14429C16.8836 5.31232 14.1333 3.29839 10.9076 3.29839V7.29839ZM16.6163 10.8018C16.8832 10.7326 17.165 10.6951 17.4585 10.6951V6.69515C16.8232 6.69515 16.2038 6.77637 15.6116 6.93004L16.6163 10.8018ZM17.4585 10.6951C19.3019 10.6951 20.7963 12.1895 20.7963 14.0329H24.7963C24.7963 9.98037 21.511 6.69515 17.4585 6.69515V10.6951ZM20.7963 14.0329C20.7963 15.7729 19.4633 17.2039 17.7643 17.357L18.1233 21.3408C21.8653 21.0036 24.7963 17.8617 24.7963 14.0329H20.7963ZM19.9438 19.3707V19.3489H15.9438V19.3707H19.9438ZM5.81252 21.3707H17.9438V17.3707H5.81252V21.3707ZM3.81252 19.3707V19.3707H7.81252V19.3707H3.81252Z" fill="#333333" mask="url(#path-2-inside-1_67_1715)"/>
</svg>
