<svg width="25" height="25" viewBox="0 0 25 25" fill="none" xmlns="http://www.w3.org/2000/svg">
<circle cx="17" cy="9" r="6" fill="#ADADAD" fill-opacity="0.5"/>
<mask id="path-2-inside-1_1_552" fill="white">
<path fill-rule="evenodd" clip-rule="evenodd" d="M6.05471 20.1778C6.0547 20.1778 6.0547 20.1778 6.0547 20.1778C3.26306 20.1778 1 17.9147 1 15.1231C1 12.4561 3.06546 10.2715 5.68402 10.0818C6.256 7.4723 8.58097 5.51917 11.3621 5.51917C13.8332 5.51917 15.9442 7.06111 16.7854 9.23534C17.2328 9.11923 17.7022 9.05744 18.186 9.05744C21.2568 9.05744 23.7461 11.5468 23.7461 14.6176C23.7461 17.518 21.5254 19.8997 18.6915 20.1551V20.1778H6.05471V20.1778Z"/>
</mask>
<path d="M6.05471 20.1778H8.05471V18.1778H6.05471V20.1778ZM5.68402 10.0818L5.8286 12.0765L7.31792 11.9686L7.63764 10.51L5.68402 10.0818ZM16.7854 9.23534L14.9201 9.95697L15.563 11.6188L17.2877 11.1712L16.7854 9.23534ZM18.6915 20.1551L18.5119 18.1632L16.6915 18.3272V20.1551H18.6915ZM18.6915 20.1778V22.1778H20.6915V20.1778H18.6915ZM6.05471 20.1778H4.05471V22.1778H6.05471V20.1778ZM6.05471 18.1778H6.05471C6.05471 18.1778 6.05471 18.1778 6.05471 18.1778C6.05471 18.1778 6.05471 18.1778 6.05471 18.1778H6.05471C6.05471 18.1778 6.05471 18.1778 6.05471 18.1778C6.05471 18.1778 6.05471 18.1778 6.05471 18.1778H6.05471C6.05471 18.1778 6.05471 18.1778 6.05471 18.1778C6.05471 18.1778 6.05471 18.1778 6.0547 18.1778C6.0547 18.1778 6.0547 18.1778 6.0547 18.1778C6.0547 18.1778 6.0547 18.1778 6.0547 18.1778C6.0547 18.1778 6.0547 18.1778 6.0547 18.1778C6.0547 18.1778 6.0547 18.1778 6.0547 18.1778C6.0547 18.1778 6.0547 18.1778 6.0547 18.1778C6.0547 18.1778 6.0547 18.1778 6.0547 18.1778C6.0547 18.1778 6.0547 18.1778 6.0547 18.1778C6.0547 18.1778 6.0547 18.1778 6.0547 18.1778C6.0547 18.1778 6.0547 18.1778 6.0547 18.1778C6.0547 18.1778 6.0547 18.1778 6.0547 18.1778C6.0547 18.1778 6.0547 18.1778 6.0547 18.1778C6.0547 18.1778 6.0547 18.1778 6.0547 18.1778H6.0547C6.0547 18.1778 6.0547 18.1778 6.0547 18.1778C6.0547 18.1778 6.0547 18.1778 6.0547 18.1778H6.0547C6.0547 18.1778 6.0547 18.1778 6.0547 18.1778C6.0547 18.1778 6.0547 18.1778 6.0547 18.1778H6.0547V22.1778H6.0547C6.0547 22.1778 6.0547 22.1778 6.0547 22.1778C6.0547 22.1778 6.0547 22.1778 6.0547 22.1778H6.0547C6.0547 22.1778 6.0547 22.1778 6.0547 22.1778C6.0547 22.1778 6.0547 22.1778 6.0547 22.1778H6.0547C6.0547 22.1778 6.0547 22.1778 6.0547 22.1778C6.0547 22.1778 6.0547 22.1778 6.0547 22.1778C6.0547 22.1778 6.0547 22.1778 6.0547 22.1778C6.0547 22.1778 6.0547 22.1778 6.0547 22.1778C6.0547 22.1778 6.0547 22.1778 6.0547 22.1778C6.0547 22.1778 6.0547 22.1778 6.0547 22.1778C6.0547 22.1778 6.0547 22.1778 6.0547 22.1778C6.0547 22.1778 6.0547 22.1778 6.0547 22.1778C6.0547 22.1778 6.0547 22.1778 6.0547 22.1778C6.0547 22.1778 6.0547 22.1778 6.0547 22.1778C6.0547 22.1778 6.0547 22.1778 6.0547 22.1778C6.0547 22.1778 6.0547 22.1778 6.0547 22.1778C6.05471 22.1778 6.05471 22.1778 6.05471 22.1778C6.05471 22.1778 6.05471 22.1778 6.05471 22.1778H6.05471C6.05471 22.1778 6.05471 22.1778 6.05471 22.1778C6.05471 22.1778 6.05471 22.1778 6.05471 22.1778H6.05471C6.05471 22.1778 6.05471 22.1778 6.05471 22.1778C6.05471 22.1778 6.05471 22.1778 6.05471 22.1778H6.05471V18.1778ZM6.0547 18.1778C4.36763 18.1778 3 16.8101 3 15.1231H-1C-1 19.0193 2.15849 22.1778 6.0547 22.1778V18.1778ZM3 15.1231C3 13.5122 4.24812 12.1911 5.8286 12.0765L5.53945 8.08699C1.88279 8.35202 -1 11.4 -1 15.1231H3ZM7.63764 10.51C8.01272 8.79882 9.54033 7.51917 11.3621 7.51917V3.51917C7.62162 3.51917 4.49928 6.14578 3.7304 9.65354L7.63764 10.51ZM11.3621 7.51917C12.9799 7.51917 14.3671 8.52745 14.9201 9.95697L18.6507 8.5137C17.5214 5.59477 14.6866 3.51917 11.3621 3.51917V7.51917ZM17.2877 11.1712C17.5725 11.0973 17.8731 11.0574 18.186 11.0574V7.05744C17.5313 7.05744 16.8932 7.14114 16.283 7.29945L17.2877 11.1712ZM18.186 11.0574C20.1522 11.0574 21.7461 12.6514 21.7461 14.6176H25.7461C25.7461 10.4422 22.3613 7.05744 18.186 7.05744V11.0574ZM21.7461 14.6176C21.7461 16.4736 20.3244 17.9998 18.5119 18.1632L18.871 22.147C22.7263 21.7996 25.7461 18.5624 25.7461 14.6176H21.7461ZM20.6915 20.1778V20.1551H16.6915V20.1778H20.6915ZM6.05471 22.1778H18.6915V18.1778H6.05471V22.1778ZM4.05471 20.1778V20.1778H8.05471V20.1778H4.05471Z" fill="#ADADAD" mask="url(#path-2-inside-1_1_552)"/>
</svg>
