<?xml version="1.0" standalone="no"?>
<!DOCTYPE svg PUBLIC "-//W3C//DTD SVG 20010904//EN"
 "http://www.w3.org/TR/2001/REC-SVG-20010904/DTD/svg10.dtd">
<svg version="1.0" xmlns="http://www.w3.org/2000/svg"
 width="512.000000pt" height="512.000000pt" viewBox="0 0 512.000000 512.000000"
 preserveAspectRatio="xMidYMid meet">
<metadata>
Created by potrace 1.14, written by Peter Selinger 2001-2017
</metadata>
<g transform="translate(0.000000,512.000000) scale(0.100000,-0.100000)"
fill="#000000" stroke="none">
<path d="M2405 4419 c-554 -80 -1111 -632 -1409 -1395 -135 -347 -191 -628
-190 -964 0 -285 32 -441 132 -645 228 -466 725 -706 1517 -731 986 -32 1616
291 1804 923 42 143 55 248 55 458 0 412 -92 780 -304 1210 -238 484 -566 842
-935 1025 -226 112 -447 151 -670 119z m878 -1394 c103 -43 201 -142 234 -240
11 -31 17 -80 17 -130 -1 -116 -29 -181 -113 -266 -96 -95 -141 -111 -344
-118 l-159 -6 -29 -33 c-33 -37 -36 -64 -14 -137 35 -112 66 -296 72 -420 9
-195 -16 -282 -95 -328 -72 -42 -485 -42 -568 1 -68 35 -88 88 -92 245 -5 153
6 242 55 439 l36 147 -20 33 c-30 51 -53 58 -205 58 -159 0 -229 17 -315 76
-59 40 -125 131 -145 197 -21 68 -15 193 11 260 28 72 111 163 177 197 99 49
97 49 794 47 627 -2 657 -3 703 -22z"/>
<path d="M2120 2899 c-96 -43 -159 -132 -168 -235 -7 -89 18 -155 82 -220 154
-153 411 -86 472 123 38 131 -31 275 -160 334 -57 26 -166 25 -226 -2z m206
-68 c53 -24 100 -82 114 -142 51 -212 -222 -351 -367 -186 -93 106 -58 262 72
330 41 22 130 21 181 -2z"/>
<path d="M2171 2763 c-44 -22 -71 -67 -71 -121 0 -81 53 -134 136 -134 146 0
184 189 52 258 -36 18 -75 17 -117 -3z"/>
<path d="M2775 2896 c-186 -86 -223 -324 -73 -462 140 -129 375 -80 450 95 30
71 28 166 -7 236 -31 64 -104 128 -163 145 -65 18 -152 12 -207 -14z m233 -79
c126 -83 126 -272 -1 -351 -218 -135 -441 146 -261 328 44 44 81 57 155 53 52
-2 75 -8 107 -30z"/>
<path d="M2834 2766 c-70 -31 -98 -107 -65 -180 23 -53 66 -79 128 -78 102 1
165 114 113 199 -37 61 -114 87 -176 59z"/>
<path d="M2390 1560 c-28 -28 -23 -67 12 -93 23 -17 31 -19 53 -9 14 6 31 23
37 37 10 22 8 30 -9 53 -26 35 -65 40 -93 12z"/>
<path d="M2640 1560 c-37 -37 -20 -93 31 -105 59 -14 97 68 49 107 -29 23 -55
23 -80 -2z"/>
</g>
</svg>
