<svg width="47" height="47" viewBox="0 0 47 47" fill="none" xmlns="http://www.w3.org/2000/svg">
<rect width="47" height="47" rx="10" fill="#362719"/>
<path fill-rule="evenodd" clip-rule="evenodd" d="M24.0993 19.5595C24.3556 19.245 24.8224 19.2037 25.1419 19.4674L28.6125 22.3318C28.932 22.5954 28.9831 23.0642 28.7268 23.3787L23.1575 30.2132C22.9012 30.5278 22.4345 30.569 22.115 30.3054L18.6443 27.441C18.3249 27.1773 18.2737 26.7086 18.53 26.394L24.0993 19.5595ZM24.7921 21.0839L20.151 26.7793L22.4648 28.6889L27.1058 22.9935L24.7921 21.0839Z" fill="white"/>
<path fill-rule="evenodd" clip-rule="evenodd" d="M25.9171 17.3289C26.5152 16.595 27.518 16.4275 28.1569 16.9548L30.4706 18.8644C31.1096 19.3917 31.1427 20.4142 30.5446 21.1481L28.9202 23.1415C28.6212 23.5085 28.1198 23.5922 27.8003 23.3286L24.3297 20.4642C24.0102 20.2005 23.9937 19.6893 24.2927 19.3223L25.9171 17.3289ZM29.3877 20.1933L27.074 18.2837L25.991 19.6127L28.3048 21.5222L29.3877 20.1933Z" fill="white"/>
<path fill-rule="evenodd" clip-rule="evenodd" d="M18.6399 26.3848C18.9213 26.2405 19.2375 26.2636 19.4566 26.4444L22.9272 29.3088C23.1463 29.4896 23.2307 29.7971 23.1453 30.1031C23.0598 30.4091 22.8191 30.661 22.5236 30.7539L18.6225 31.9796C18.3769 32.0567 18.1252 32.0137 17.9431 31.8634C17.7611 31.7132 17.6698 31.4732 17.697 31.2157L18.1275 27.1257C18.1601 26.8158 18.3585 26.529 18.6399 26.3848ZM19.5305 28.7282L19.387 30.0915L20.6874 29.683L19.5305 28.7282Z" fill="white"/>
</svg>
